/* XPM */
static char *result[] = {
/* columns rows colors chars-per-pixel */
"64 64 25 1 ",
"  c #4A4743",
". c #4B4945",
"X c #6D675D",
"o c #6D685D",
"O c #706A60",
"+ c #746F64",
"@ c #777363",
"# c #757065",
"$ c #787363",
"% c #7A7666",
"& c #7F7B6A",
"* c #807C6B",
"= c #888672",
"- c #898773",
"; c #8B8976",
": c #8F8E7B",
"> c #908F7C",
", c #999983",
"< c #9B9B86",
"1 c #9E9F8B",
"2 c #9F9F8C",
"3 c #9BA39D",
"4 c #9DA59F",
"5 c #A0A9A3",
"6 c #A1A9A4",
/* pixels */
"344414,4<<<<1<<O6444<5<4,,<<<<1O344414,4<<<<1<<O6444<5<4,,<<<<1O",
"3;;>;;;-;>;>;;>*4--;;;>;;;;;;;-@3;;>;;;-;>;>;;>*4--;;;>;;;;;;;-@",
"4:;>=;;;>;>=;;;%4:;=;>;>=>;;;:>%4:;>=;;;>;>=;;;%4:;=;>;>=>;;;:>%",
"<;>-;;>=;>;;;;;%<;;;>;>->:;-=;;%<;>-;;>=;>;;;;;%<;;;>;>->:;-=;;%",
"4;;;;;>;;;=;;>;%4>;-;;;;;=;;>;=%4;;;;;>;;;=;;>;%4>;-;;;;;=;;>;=%",
"<;;=:>;;;>;;;;;X1;;;;>=;>;;;;>;O<;;=:>;;;>;;;;;X1;;;;>=;>;;;;>;O",
"<;-->;;;>;:;;;>%<:;;;;>-;;;;>;:$<;-->;;;>;:;;;>%<:;;;;>-;;;;>;:$",
",;;>;:=>;>;;=>;#<;;-;>;;;;;>;;;O,;;>;:=>;>;;=>;#<;;-;>;;;;;>;;;O",
"<;:;>;;;-;;:>;-%<;;;>>:;;=>-:;;%<;:;>;;;-;;:>;-%<;;;>>:;;=>-:;;%",
"<;;:;;;:;;;>>>;X,;;>=>;;;;;>;;;o<;;:;;;:;;;>>>;X,;;>=>;;;;;>;;;o",
",;>=:;;;-;;;>;;%<;:;>>;;-;>:;=>%,;>=:;;;-;;;>;;%<;:;>>;;-;>:;=>%",
"<>=>;;;;=;;>=>-O<-;>;;;;;>;:;;-O<>=>;;;;=;;>=>-O<-;>;;;;;>;:;;-O",
"2;;;;;;;;;>:>:;O<;;>;;:=;>;;;;;O2;;;;;;;;;>:>:;O<;;>;;:=;>;;;;;O",
"<;=;;;-;;>->>;=#<;;;;;;;;;;;;;;#<;=;;;-;;>->>;=#<;;;;;;;;;;;;;;#",
"<>-;;;=;>;=;;;;+<>;;;-;;;-;;;:>O<>-;;;=;>;=;;;;+<>;;;-;;;-;;;:>O",
"O%%%*&%*O%O%OOO.#%%@%%*%O*X*OOX.O%%%*&%*O%O%OOO.#%%@%%*%O*X*OOX.",
"3443<4<4<<,<<<<o4543<6,5<<2<1<2O3443<4<4<<,<<<<o4543<6,5<<2<1<2O",
"4;>;-;;;;;=;;;>%4=;;>;;;;>>;;;;%4;>;-;;;;;=;;;>%4=;;>;;;;>>;;;;%",
"4-;=-;;;->;;;:;@4>=>;;>;;;>>>;;%4-;=-;;;->;;;:;@4>=>;;>;;;>>>;;%",
"2;>;=>;=>;;;>;;%<;>>>;;;-;;>;=;%2;>;=>;=>;;;>;;%<;>>>;;;-;;>;=;%",
"3;:;;;;>:;;>;;:%5>;>;>;;;->;;-;&3;:;;;;>:;;>;;:%5>;>;>;;;->;;-;&",
"<;;=;;>;>;:;;;;O2;>=;;;;;>-=>;;O<;;=;;>;>;:;;;;O2;>=;;;;;>-=>;;O",
",;>;->;>>>;;=;;@<-;;;:;=;;;;>:;%,;>;->;>>>;;=;;@<-;;;:;=;;;;>:;%",
"<;;;:;>:=;;>;->#<;;;;;;;>;;>;;;+<;;;:;>:=;;>;->#<;;;;;;;>;;>;;;+",
"<;;>>=;>>;;;;;;%1;;=;;;;>;>;>=>%<;;>>=;>>;;;;;;%1;;=;;;;>;>;>=>%",
"<>;;>;;;;:;;;>;O<;>;;:;>-:;>>>-O<>;;>;;;;:;;;>;O<;>;;:;>-:;>>>-O",
"<=;>;;;:;;;:;;;%<;=>;;>;>:>=>;;%<=;>;;;:;;;:;;;%<;=>;;>;>:>=>;;%",
"<;-=>;;;=;;-;;>X<;;;;=->;>;>;;;+<;-=>;;;=;;-;;>X<;;;;=->;>;>;;;+",
"<;;;;>;>;;=>;:;O<;;;;;=;;;-;;=;O<;;;;>;>;;=>;:;O<;;;;;=;;;-;;=;O",
"<;=;>;>;;>>;>;;#,;;;:>;>;>;;>;:O<;=;>;>;;>>;>;;#,;;;:>;>;>;;>;:O",
"<:;;;=;;;;;:;;;O<;>=;:;;-:;;;;;O<:;;;=;;;;;:;;;O<;>=;:;;-:;;;;;O",
"O%&%*%%%O%o%OXO O*%%%%&%X%O%OO#.O%&%*%%%O%o%OXO O*%%%%&%X%O%OO#.",
"344414,4<<<<1<<O6444<5<4,,<<<<1O344414,4<<<<1<<O6444<5<4,,<<<<1O",
"3;;>;;;-;>;>;;>*4--;;;>;;;;;;;-@3;;>;;;-;>;>;;>*4--;;;>;;;;;;;-@",
"4:;>=;;;>;>=;;;%4:;=;>;>=>;;;:>%4:;>=;;;>;>=;;;%4:;=;>;>=>;;;:>%",
"<;>-;;>=;>;;;;;%<;;;>;>->:;-=;;%<;>-;;>=;>;;;;;%<;;;>;>->:;-=;;%",
"4;;;;;>;;;=;;>;%4>;-;;;;;=;;>;=%4;;;;;>;;;=;;>;%4>;-;;;;;=;;>;=%",
"<;;=:>;;;>;;;;;X1;;;;>=;>;;;;>;O<;;=:>;;;>;;;;;X1;;;;>=;>;;;;>;O",
"<;-->;;;>;:;;;>%<:;;;;>-;;;;>;:$<;-->;;;>;:;;;>%<:;;;;>-;;;;>;:$",
",;;>;:=>;>;;=>;#<;;-;>;;;;;>;;;O,;;>;:=>;>;;=>;#<;;-;>;;;;;>;;;O",
"<;:;>;;;-;;:>;-%<;;;>>:;;=>-:;;%<;:;>;;;-;;:>;-%<;;;>>:;;=>-:;;%",
"<;;:;;;:;;;>>>;X,;;>=>;;;;;>;;;o<;;:;;;:;;;>>>;X,;;>=>;;;;;>;;;o",
",;>=:;;;-;;;>;;%<;:;>>;;-;>:;=>%,;>=:;;;-;;;>;;%<;:;>>;;-;>:;=>%",
"<>=>;;;;=;;>=>-O<-;>;;;;;>;:;;-O<>=>;;;;=;;>=>-O<-;>;;;;;>;:;;-O",
"2;;;;;;;;;>:>:;O<;;>;;:=;>;;;;;O2;;;;;;;;;>:>:;O<;;>;;:=;>;;;;;O",
"<;=;;;-;;>->>;=#<;;;;;;;;;;;;;;#<;=;;;-;;>->>;=#<;;;;;;;;;;;;;;#",
"<>-;;;=;>;=;;;;+<>;;;-;;;-;;;:>O<>-;;;=;>;=;;;;+<>;;;-;;;-;;;:>O",
"O%%%*&%*O%O%OOO.#%%@%%*%O*X*OOX.O%%%*&%*O%O%OOO.#%%@%%*%O*X*OOX.",
"3443<4<4<<,<<<<o4543<6,5<<2<1<2O3443<4<4<<,<<<<o4543<6,5<<2<1<2O",
"4;>;-;;;;;=;;;>%4=;;>;;;;>>;;;;%4;>;-;;;;;=;;;>%4=;;>;;;;>>;;;;%",
"4-;=-;;;->;;;:;@4>=>;;>;;;>>>;;%4-;=-;;;->;;;:;@4>=>;;>;;;>>>;;%",
"2;>;=>;=>;;;>;;%<;>>>;;;-;;>;=;%2;>;=>;=>;;;>;;%<;>>>;;;-;;>;=;%",
"3;:;;;;>:;;>;;:%5>;>;>;;;->;;-;&3;:;;;;>:;;>;;:%5>;>;>;;;->;;-;&",
"<;;=;;>;>;:;;;;O2;>=;;;;;>-=>;;O<;;=;;>;>;:;;;;O2;>=;;;;;>-=>;;O",
",;>;->;>>>;;=;;@<-;;;:;=;;;;>:;%,;>;->;>>>;;=;;@<-;;;:;=;;;;>:;%",
"<;;;:;>:=;;>;->#<;;;;;;;>;;>;;;+<;;;:;>:=;;>;->#<;;;;;;;>;;>;;;+",
"<;;>>=;>>;;;;;;%1;;=;;;;>;>;>=>%<;;>>=;>>;;;;;;%1;;=;;;;>;>;>=>%",
"<>;;>;;;;:;;;>;O<;>;;:;>-:;>>>-O<>;;>;;;;:;;;>;O<;>;;:;>-:;>>>-O",
"<=;>;;;:;;;:;;;%<;=>;;>;>:>=>;;%<=;>;;;:;;;:;;;%<;=>;;>;>:>=>;;%",
"<;-=>;;;=;;-;;>X<;;;;=->;>;>;;;+<;-=>;;;=;;-;;>X<;;;;=->;>;>;;;+",
"<;;;;>;>;;=>;:;O<;;;;;=;;;-;;=;O<;;;;>;>;;=>;:;O<;;;;;=;;;-;;=;O",
"<;=;>;>;;>>;>;;#,;;;:>;>;>;;>;:O<;=;>;>;;>>;>;;#,;;;:>;>;>;;>;:O",
"<:;;;=;;;;;:;;;O<;>=;:;;-:;;;;;O<:;;;=;;;;;:;;;O<;>=;:;;-:;;;;;O",
"O%&%*%%%O%o%OXO O*%%%%&%X%O%OO#.O%&%*%%%O%o%OXO O*%%%%&%X%O%OO#."
};
