/* XPM */
static char *result[] = {
/* columns rows colors chars-per-pixel */
"64 64 18 1 ",
"  c #141413",
". c #1A1A18",
"X c #382B2F",
"o c #49383D",
"O c #383F40",
"+ c #464D4F",
"@ c #495254",
"# c #536265",
"$ c #5B6567",
"% c #62797E",
"& c #6D8084",
"* c #889C9E",
"= c #809EA5",
"- c #94AFAE",
"; c #ADBBBC",
": c #B5C8C7",
"> c #B1CED6",
", c #C9DDE2",
/* pixels */
"# XXOOOX# XXOOOX# XXOOOX# XXOOOX# XXXXXOXOOOOOOX# XXXXXOXOOOOOOX",
"%X%**%#X%X%**%#X%X%**%#X%X%**%#X%X%**********%#X%X%**********%#X",
"%X->>-#X%X->>-#X%X->>-#X%X->>-#X%X->>>>>>>>>>-#X%X->>>>>>>>>>-#X",
"%X->>-#X%X->>-#X%X->>-#X%X->>-#X%X->>>>>>>>>>-#X%X->>>>>>>>>>-#X",
"%O->>-%X%O->>-%X%O->>-%X%O->>-%X%O->>>>>>>>>>-%X%O->>>>>>>>>>-%X",
"%O->>-%O%O->>-%O%O->>-%O%O->>-%O%O->>>>>>>>>>-%O%O->>>>>>>>>>-%O",
"%O*--*%X%O*--*%X%O*--*%X%O*--*%X%O*----------*%X%O*----------*%X",
"%+##%%*O%+##%%*O%+##%%*O%+##%%*O%+####%#%%%%%%*O%+####%#%%%%%%*O",
"&.oo@@@o&.oo@@@o&.oo@@@o&.oo@@@o&.ooooooo@@@@@@o&.ooooooo@@@@@@o",
"=o=;;=&@=o=;;=&@=o=;;=&@=o=;;=&@=o=;;;;;;;;;;=&@=o=;;;;;;;;;;=&@",
"&o:,,:&o&o:,,:&o&o:,,:&o&o:,,:&o&o:,,,,,,,,,,:&o&o:,,,,,,,,,,:&o",
"$o:,,:&$$o:,,:&$$o:,,:&$$o:,,:&$$o:,,,,,,,,,,:&$$o:,,,,,,,,,,:&$",
"=@:,,:=@=@:,,:=@=@:,,:=@=@:,,:=@=@:,,,,,,,,,,:=@=@:,,,,,,,,,,:=@",
"&@:,,:=@&@:,,:=@&@:,,:=@&@:,,:=@&@:,,,,,,,,,,:=@&@:,,,,,,,,,,:=@",
"&@;::;=@&@;::;=@&@;::;=@&@;::;=@&@;::::::::::;=@&@;::::::::::;=@",
"&$&&==;@&$&&==;@&$&&==;@&$&&==;@&$&&&&=&======;@&$&&&&=&======;@",
"&.oo@@@@&.oo@@@@&.oo@@@@&.oo@@@@&.ooooooo@o@@@@@&.ooooooo@o@@@@@",
"&o=;;=&@&o=;;=&@&o=;;=&@&o=;;=&@&o=;;;;;;;;;;=&@&o=;;;;;;;;;;=&@",
"&o:,,:&@&o:,,:&@&o:,,:&@&o:,,:&@&o:,,,,,,,,,,:&@&o:,,,,,,,,,,:&@",
"&o:,,:&@&o:,,:&@&o:,,:&@&o:,,:&@&o:,,,,,,,,,,:&@&o:,,,,,,,,,,:&@",
"&@:,,:=@&@:,,:=@&@:,,:=@&@:,,:=@&@:,,,,,,,,,,:=@&@:,,,,,,,,,,:=@",
"&@:,,:=@&@:,,:=@&@:,,:=@&@:,,:=@=@:,,,,,,,,,,:=@=@:,,,,,,,,,,:=@",
"&@;::;=@&@;::;=@&@;::;=@&@;::;=@&@;::::::::::;=@&@;::::::::::;=@",
"&$&&==;@&$&&==;@&$&&==;@&$&&==;@=$&&&&=&======;@=$&&&&=&======;@",
"&.oo@@@@&.oo@@@@&.oo@@@@&.oo@@@@=.oooooo@o@@@@@@=.oooooo@o@@@@@@",
"&o=;;=&@&o=;;=&@&o=;;=&@&o=;;=&@=o=;;;;;;;;;;=&@=o=;;;;;;;;;;=&@",
"&o:,,:&o&o:,,:&o&o:,,:&o&o:,,:&o=o:,,,,,,,,,,:&o=o:,,,,,,,,,,:&o",
"&o:,,:&@&o:,,:&@&o:,,:&@&o:,,:&@=o:,,,,,,,,,,:&@=o:,,,,,,,,,,:&@",
"&@:,,:=o&@:,,:=o&@:,,:=o&@:,,:=o=@:,,,,,,,,,,:=o=@:,,,,,,,,,,:=o",
"&@:,,:=@&@:,,:=@&@:,,:=@&@:,,:=@=@:,,,,,,,,,,:=@=@:,,,,,,,,,,:=@",
"&@;::;=o&@;::;=o&@;::;=o&@;::;=o=@;::::::::::;=o=@;::::::::::;=o",
"&$&&==;o&$&&==;o&$&&==;o&$&&==;o=$&&&=&=======;o=$&&&=&=======;o",
"&.oo@@@o&.oo@@@o&.oo@@@o&.oo@@@o=.oooooo@o@@@@@o=.oooooo@o@@@@@o",
"&o=;;=&o&o=;;=&o&o=;;=&o&o=;;=&o=o=;;;;;;;;;;=&o=o=;;;;;;;;;;=&o",
"&o:,,:&o&o:,,:&o&o:,,:&o&o:,,:&o=o:,,,,,,,,,,:&o=o:,,,,,,,,,,:&o",
"&o:,,:&o&o:,,:&o&o:,,:&o&o:,,:&o=o:,,,,,,,,,,:&o=o:,,,,,,,,,,:&o",
"&@:,,:=o&@:,,:=o&@:,,:=o&@:,,:=o=@:,,,,,,,,,,:=o=@:,,,,,,,,,,:=o",
"&@:,,:=o&@:,,:=o&@:,,:=o&@:,,:=o=@:,,,,,,,,,,:=o=@:,,,,,,,,,,:=o",
"&@;::;=o&@;::;=o&@;::;=o&@;::;=o=@;::::::::::;=o=@;::::::::::;=o",
"&$&&==;o&$&&==;o&$&&==;o&$&&==;o&$&&&&=&======;o&$&&&&=&======;o",
"&.oo@@@o&.oo@@@o&.oo@@@o&.oo@@@o=.ooooooo@@@@@@o=.ooooooo@@@@@@o",
"&o=;;=&o&o=;;=&o&o=;;=&o&o=;;=&o&o=;;;;;;;;;;=&o&o=;;;;;;;;;;=&o",
"=o:,,:&o=o:,,:&o=o:,,:&o=o:,,:&o=o:,,,,,,,,,,:&o=o:,,,,,,,,,,:&o",
"&o:,,:&o&o:,,:&o&o:,,:&o&o:,,:&o&o:,,,,,,,,,,:&o&o:,,,,,,,,,,:&o",
"=@:,,:=o=@:,,:=o=@:,,:=o=@:,,:=o=@:,,,,,,,,,,:=o=@:,,,,,,,,,,:=o",
"=@:,,:=o=@:,,:=o=@:,,:=o=@:,,:=o=@:,,,,,,,,,,:=o=@:,,,,,,,,,,:=o",
"=@;::;=o=@;::;=o=@;::;=o=@;::;=o=@;::::::::::;=o=@;::::::::::;=o",
"=$&&==;o=$&&==;o=$&&==;o=$&&==;o=$&&&=&=======;o=$&&&=&=======;o",
"=.oo@@@o=.oo@@@o=.oo@@@o=.oo@@@o=.oooooo@o@@@@@o=.oooooo@o@@@@@o",
"=o=;;=&o=o=;;=&o=o=;;=&o=o=;;=&o=o=;;;;;;;;;;=&o=o=;;;;;;;;;;=&o",
"=o:,,:&@=o:,,:&@=o:,,:&@=o:,,:&@=o:,,,,,,,,,,:&@=o:,,,,,,,,,,:&@",
"=o:,,:&o=o:,,:&o=o:,,:&o=o:,,:&o=o:,,,,,,,,,,:&o=o:,,,,,,,,,,:&o",
"=@:,,:=o=@:,,:=o=@:,,:=o=@:,,:=o=@:,,,,,,,,,,:=o=@:,,,,,,,,,,:=o",
"&@:,,:=o&@:,,:=o&@:,,:=o&@:,,:=o&@:,,,,,,,,,,:=o&@:,,,,,,,,,,:=o",
"=@;::;=o=@;::;=o=@;::;=o=@;::;=o=@;::::::::::;=o=@;::::::::::;=o",
"$$&&==;@$$&&==;@$$&&==;@$$&&==;@&$&&&=&=======;@&$&&&=&=======;@",
"&.oo@@@o&.oo@@@o&.oo@@@o&.oo@@@o&.ooooo@o@@@@@@o&.ooooo@o@@@@@@o",
"&o=;;=&@&o=;;=&@&o=;;=&@&o=;;=&@&o=;;;;;;;;;;=&@&o=;;;;;;;;;;=&@",
"&o:,,:&o&o:,,:&o&o:,,:&o&o:,,:&o&o:,,,,,,,,,,:&o&o:,,,,,,,,,,:&o",
"$o:,,:&o$o:,,:&o$o:,,:&o$o:,,:&o$o:,,,,,,,,,,:&o$o:,,,,,,,,,,:&o",
"&@:,,:=o&@:,,:=o&@:,,:=o&@:,,:=o&@:,,,,,,,,,,:=o&@:,,,,,,,,,,:=o",
"$@:,,:=o$@:,,:=o$@:,,:=o$@:,,:=o$@:,,,,,,,,,,:=o$@:,,,,,,,,,,:=o",
"&@;::;=o&@;::;=o&@;::;=o&@;::;=o&@;::::::::::;=o&@;::::::::::;=o",
"&$&&==;o&$&&==;o&$&&==;o&$&&==;o&$&&&&=&======;o&$&&&&=&======;o"
};
