/* XPM */
static char *result[] = {
/* columns rows colors chars-per-pixel */
"64 64 11 1 ",
"  c #1A1A18",
". c #2F231E",
"X c #3D241E",
"o c #49383D",
"O c #495254",
"+ c #625249",
"@ c #5B6567",
"# c #BD971B",
"$ c #6D8084",
"% c #809EA5",
"& c #ADBBBC",
/* pixels */
"&&&%%%%%%$%%%%$%%%%%%%%%%$%%%%$%&&&%%%%%%$%%%%$%%%%%%%%%%$%%%%$%",
"%@@@@@@@@@@@@@@@@@@@@@@@@@@@@@@@%@@@@@@@@@@@@@@@@@@@@@@@@@@@@@@@",
"%@@@@@@@@@@@@@@@@@@@@@@@@@@@@@@O%@@@@@@@@@@@@@@@@@@@@@@@@@@@@@@O",
"$@o%O@@@@@@@@@@@@@@@@@@@@@o%O@@@$@o%O@@@@@@@@@@@@@@@@@@@@@o%O@@@",
"%@oOO@@@@@@@@@@@@@@@@@@@@@oOO@@O%@oOO@@@@@@@@@@@@@OoO@@@@@oOO@@O",
"$@oo@@@@@@@@@@@@@@@@@@@@@@oo@@@@$@oo@@@@@@@@@@@@@@o o@@@@@oo@@@@",
"$@@@@@@@@@@@@@@@@@@@@@@@@@@@@@@O$@@@@@@@@@@@@@@@@@+++@@@@@@@@@@O",
"$@@@@@@..oooooooooOoOoOOO@@@@@@O$@@@@@@..ooooooooOoooOOOO@@@@@@O",
"@@@@@@@oO@@@@@@@@@@@@@@@@@@@@@@O@@@@@@@oO@@@@@@@@@++@@@@@@@@@@@O",
"$@@@@@@O@OOOOOOOOOOOOOO@$@@@@@@O$@@@@@@O@OOOOOOOOOoooOO@$@@@@@@O",
"@@@@@@@o@OOOOOOOOOOOOOO@@@@O@O@O@@@@@@@o@OOOOOOOOOooOOO@@@@@@@@O",
"$@@@@@@O@@+@@@@@@@@@@@@@$@OOO@@O$@@@@@@O@@@@@@@@@@++@@@@$@@@@@@O",
"$@@@@@@o@oOOOOOOOOOOOOO@$@@O@@@o$@@@@@@o@OOOOOOOOOOoOOO@$@@@@@@o",
"$@@@@@@o+@+@+@@@@@@@@@@@$@O@O@@O$@@@@@@O@@@@@@@@@@++@@@@$@@@@@@O",
"$@@@@@@o++@+@@@@@@@@@@@@$O@O@@@o$@@@@@@O@@@@@@@@@@@+@@@@$@@@@@@o",
"$@@@@@+o+@+@@@@@@@@@@@@@$@@@@@@o$@@@@@@O@@@@@@@@@@@+@@@@$@@@@@@o",
"@@@@@+@o++@@@@@@@@@@@@@@$@@@@@@o@@@@@@@O@@@@@@@@@@@@@@@@$@@@@@@o",
"$@@@+@+o+@@@@@@@@@@@@@@@$@@@@@@o$@@@@@@O@@@@@@@@@@@+@@@@$@@@@@@o",
"$@@+@+@o@@@@@@@@@@@@@@@@%@@@@@@o$@@@@@@O@@@@@@@@@@@@@@@@%@@@@@@o",
"$@+@@@@O@@@@@@@@@@@@@@@@$@@@@@@o$@@@@@@O@@@@@@@@@@@@@@@@$@@@@@@o",
"$@@@@@@O@@##@#@@@#@@#@@@%@@@@@@X$@@@@@@O@@########@###@@%@@@@@@X",
"$@@@@@@O@@#@#@#@#@@#@#@@$@@@@@@o$@@@@@@O@@########@###@@$@@@@@@o",
"$@@@@@@O@@####@###@@##@@%@@@@@@X$@@@@@@O@@########@###@@%@@@@@@X",
"$@@@@@@O@@@@@@@@@@@@@@@@%@@@@@@X$@@@@@@O@@@@@@@@@@@@@@@@%@@@@@@X",
"$@@@@@@O@@@@@@@@@@@@@@@@%@@@@@@X$@@@@@@O@@@@@@@@@@@@@@@@%@@@@@@X",
"$@@@@@@@$$$$$%$@@@@$%%%&&@@@@@@X$@@@@@@@$$$$%%%%%$%%%%&&&@@@@@@X",
"@@@@@@@@@@@@@@@$%%%%$@@@@@@@@@@X@@@@@@@@@@@@@@@@@@@@@@@@@@@@@@@X",
"$@o%O@@@@@@@@@@@@@@@@@@@@@o%O@@X$@o%O@@@@@@@@@@@@@@@@@@@@@o%O@@X",
"@@oOO@@@@@@@@@@@@@@@@@@@@@oOO@@X@@oOO@@@@@@@@@@@@@@@@@@@@@oOO@@X",
"$@oo@@@@@@@@@@@@@@@@@@@@@@oo@@@X$@oo@@@@@@@@@@@@@@@@@@@@@@oo@@@X",
"@@@@@@@@@@@@@@@@@@@@@@@@@@@@@@@X@@@@@@@@@@@@@@@@@@@@@@@@@@@@@@@X",
"oXXXXXXoXoXooooooXXXXXXXXXXXXXXXoXXXXXXoXoXooooooXXXXXXXXXXXXXXX",
"&&&%%%%%%$%%%%$%%%%%%%%%%$%%%%$%&&&%%%%%%$%%%%$%%%%%%%%%%$%%%%$%",
"%@@@@@@@@@@@@@@@@@@@@@@@@@@@@@@@%@@@@@@@@@@@@@@@@@@@@@@@@@@@@@@@",
"%@@@@@@@@@@@@@@@@@@@@@@@@@@@@@@O%@@@@@@@@@@@@@@@@@@@@@@@@@@@@@@O",
"$@o%O@@@@@@@@@@@@@@@@@@@@@o%O@@@$@o%O@@@@@@@@@@@@@@@@@@@@@o%O@@@",
"%@oOO@@@@@@@@@@@@@@@@@@@@@oOO@@O%@oOO@@@@@@@@@@@@@@@@@@@@@oOO@@O",
"$@oo@@@@@@@@@@@@@@@@@@@@@@oo@@@@$@oo@@@@@@@@@@@@@@@@@@@@@@oo@@@@",
"$@@@@@@@@@@@@@@@@@@@@@@@@@@@@@@O$@@@@@@@@@@@@@@@@@@@@@@@@@@@@@@O",
"$@@@@@@..ooooooooOoOoOOOO@@@@@@O$@@@@@@..ooooooooOoOoOOOO@@@@@@O",
"@@@@@@@oO@@@@@@@@@@@@@@@@@@@@@@O@@@@@@@oO@@@@@@@@@@@@@@@@@@@@@@O",
"$@@@@@@O@OOOOOOOOOOOOOO@$@@@@@@O$@@@@@@O@OOOOOOOOOOOOOO@$@@@@@@O",
"@@@@@@@o@OOOOOOOOOOOOOO@@@@@@@@O@@@@@@@o@OOOOOOOOOOOOOO@@@@@@@@O",
"$@@@@@@O@@@@@@@@@@@@@@@@$@@@@@@O$@@@@@@O@@@@@@@@@@@@@@@@$@@@@@@O",
"$@@@@@@o@OOOOOOOOOOOOOO@$@@@@@@o$@@@@@@o@OOOOOOOOOOOOOO@$@@@@@@o",
"$@@@@@@O@@@@@@@@@@@@@@@@$@@@@@@O$@@@@@@O@@@@@@@@@@@@@@@@$@@@@@@O",
"$@@@@@@O@@@@@@@@@@@@@@@@$@@@@@@o$@@@@@@O@@@@@@@@@@@@@@@@$@@@@@@o",
"$@@@@@@O@@@@@@@@@@@@@@@@$@@@@@@o$@@@@@@O@@@@@@@@@@@@@@@@$@@@@@@o",
"@@@@@@@O@@@@@@@@@@@@@@@@$@@@@@@o@@@@@@@O@@@@@@@#@#@##@@@$@@@@@@o",
"$@@@@@@O@@@@@@@@@@@@@@@@$@@@@@@o$@@@@@@O@@@@@@@###@@#@@@$@@@@@@o",
"$@@@@@@O@@@@@@@@@@@@@@@@%@@@@@@o$@@@@@@O@@@@@@@@@#@###@@%@@@@@@o",
"$@@@@@@O@@@@@@@@@@@@@@@@$@@@@@@o$@@@@@@O@@@@@@@@@@@@@@@@$@@@@@@o",
"$@@@@@@O@@########@###@@%@@@@@@X$@@@@@@O@@########@###@@%@@@@@@X",
"$@@@@@@O@@########@###@@$@@@@@@o$@@@@@@O@@########@###@@$@@@@@@o",
"$@@@@@@O@@########@###@@%@@@@@@X$@@@@@@O@@########@###@@%@@@@@@X",
"$@@@@@@O@@@@@@@@@@@@@@@@%@@@@@@X$@@@@@@O@@@@@@@@@@@@@@@@%@@@@@@X",
"$@@@@@@O@@@@@@@@@@@@@@@@%@@@@@@X$@@@@@@O@@@@@@@@@@@@@@@@%@@@@@@X",
"$@@@@@@@$$$$%%%%%$%%%%&&&@@@@@@X$@@@@@@@$$$$%%%%%$%%%%&&&@@@@@@X",
"@@@@@@@@@@@@@@@@@@@@@@@@@@@@@@@X@@@@@@@@@@@@@@@@@@@@@@@@@@@@@@@X",
"$@o%O@@@@@@@@@@@@@@@@@@@@@o%O@@X$@o%O@@@@@@@@@@@@@@@@@@@@@o%O@@X",
"@@oOO@@@@@@@@@@@@@@@@@@@@@oOO@@X@@oOO@@@@@@@@@@@@@@@@@@@@@oOO@@X",
"$@oo@@@@@@@@@@@@@@@@@@@@@@oo@@@X$@oo@@@@@@@@@@@@@@@@@@@@@@oo@@@X",
"@@@@@@@@@@@@@@@@@@@@@@@@@@@@@@@X@@@@@@@@@@@@@@@@@@@@@@@@@@@@@@@X",
"oXXXXXXoXoXooooooXXXXXXXXXXXXXXXoXXXXXXoXoXooooooXXXXXXXXXXXXXXX"
};
