/* XPM */
static char *result[] = {
/* columns rows colors chars-per-pixel */
"64 64 24 1 ",
"  c #475A57",
". c #4A5F5C",
"X c #4D615D",
"o c #6E6450",
"O c #736954",
"+ c #786C55",
"@ c #786F5A",
"# c #7C725A",
"$ c #4D6463",
"% c #506763",
"& c #586963",
"* c #566C69",
"= c #586D69",
"- c #5E6E69",
"; c #5E716F",
": c #657470",
"> c #657976",
", c #84755A",
"< c #827860",
"1 c #847960",
"2 c #887A60",
"3 c #887E65",
"4 c #8D8166",
"5 c #8D856C",
/* pixels */
"5,:-*-5244:2*-42<2:-:<42@34-:-<252:-*-5242:4<-42<2:::#44@34-:-<2",
"@,4%:-:@4<4%:-*#4O@-4:*2424-:-$3@24%:-4O4#4*:-*#4O@2:2<4424-42@3",
"4+4#>-:-<4<342:-4#43:*:%5#42:%*-4#4#$2:2<2<542424#43:#:#5#42:#*-",
":,<O4-*;:<424-:2:242<:*O*#4O5-:-:2<O4-*;:#444-42:242<2<.*#4O5-:-",
":&4242*-:-524#:-:%4O44:-:;42<2>-:-4242<-:-524#424%4O42424;42<2>2",
":&:3<#4-:%:2424;*2:24<5-*-:24#4-4-:3<#4-:%:24243<2424#5-<-:24#4-",
"4&$.<242*-*-42<24%:-44<O:-:-<2<O:2$O<242<-*-42<24+4-42<O:24-<2<O",
"5&:%:#5#4%:->#4#4-:.:<424-:%:2425-4#4+5#4%:2>#4#4,:O4#424-:%:242",
"4,*-*242@-:%*2@24-:-<<<243*.*2424-*-*,42@-:%<2@24,42*#<243*.*242",
":-:%424#:2:%<#43@-:#5<42424%424O:2:#4,4#4-4%<#43@&4#5#424-:%424O",
"$-*3<24-$-:2<242:-*2<<4-$-<#43<-$-<3<,4-$-:2<24-42<2<#4-$-<#43<-",
":%5#424->-4#5#@24.4#444-4#4#42$&:%5#4,42>24#5#$-4O4#42:-:#4#42$-",
"*24242:&:2<#<#:-:24#42*;:#4242:&*2424-:-:2<#<#42:24#4&<;:#424-:-",
"4252:2$&4#@#*-5%4242:24-4242:-:+4252:2$-4#@#*->#4242:,:-4242:::%",
"4#@-:->,<25-:&4#4#4-:O424O4-:%<24#@2:->2<25-424#4#42: :24O4-:**2",
"42:2*#4+4242:&42<24;:2<24#>#:252424-<#4#42:2:-42<24;:&<24#>%:452",
"524;:24,42$-4&4O4#4.4%5#42<-*2<252:;:24242$-:-4O4#:.:X5#42*-*:<2",
"42<:$-4,42524,*2434-<2:24#<2:24242<-$2:2425-:-*2434-*&:24#<-:-:2",
"4O45$24,@#424X:34#5#4-<242<#*2424O43$-:-@#42:%:34#5#:&*-42<#*-42",
"*2<45%41*242<,4-42<#<-:2@24#4342*2<25%43<242<-:-:2<#<,:2$24#4;:-",
"@-<4424+*-4#4,<-*#4#4#:-4O<24O:#$-<242:%<-4#42*-*%4#4+:-:.<24O:%",
":-:542<,<2<24,4-*-*342424#@3<242:-:342<-*-*2424-*-*3424-:%@3<242",
"$2*2@#4+*#:25,434O424#434242<#42@4*2@#4#*#:-5243:O:-4#43:-:-<#42",
"4-:-<2<+524#4o<#424-:242<24#424#4442*2<#52:#:O<#42424244<-4%:24#",
"4-:%*34+<2424,42<-4;4444<2*-<3<2444%*34#<2:2:242<2:;:244<-*2*3<2",
"4#42<24,4#424+4244*-4<4<@#:#<#@24<4-<2444%:24#4242*24#4<$%:%<#@2",
"4;4#424+4-4#424-:2>#44<4<%*3<242:54#424*4-:#424-4->#42<:*%*3<24-",
":-@3<2:,5-4O42<;424243$*4%4#42:#::@3<244>-4O42*;:-4243$*:%4#42:%",
":2424%4X:25#4#:-:242425::2@24;:-:2424%4*:25#4#:2:2424->::2@24;:-",
"4252*-*&4#<2<44%5242<#:%4#42*-<-4252*-*:4#<2*2:#5242*#:*4#42*-*-",
"4#4&43:,424#4:4242<3:#42@#42:-:24#4-:;:4424%4-:242<;:#:2@#4-4-:2",
"42*&*-4,42@24>4o4<:-:2<252:-:2<242*2*-4442@-4;4O4#:-:-<252:-:-<4",
"52:&*-5,4242<44,<4:24%42@3:-:-<252:&*&5442:&*-42<2:::%42@3:-:-<4",
"@24X42:o4<4#44<+4@@24-*2424-:-$3@24X:&:O4#4X:-*#4O@4:-*2424-42$5",
"4#4+5-4,<4<344:,4#434#:%5#42:%*-4#4+>&:-<2<1:-:-4#45:%:%5#42:%*-",
":2<o42*1:<4244:,4242<-*.*#4O5-:-:2<o4&*;:#4,4-4-:242<-<.<#4O524-",
"424,42*&::524<:&:#4O42:-:;42<2>-:-4,42*-:-5,4#:-:%4O42:-:;42<252",
"4-:1<#4,:*42444=*2:24#5-*-:24#4-:-:1<#4-:%:,424;*-:24#5-*2:24#42",
"42$o<24,<:<-42<,:%:-42<O:-:-<2<O:-$.<242*-*-42<2:%:-42<O:2:2<2<O",
"5-4X:#5+4<:2>#4+42:.:#424-:%:24,5-:%:#5#4%:->#4#4-:O:#4242:#:242",
"42<,*24,@4:%<2@,4-::*#<24;*.*24,4-*-*242@-:%*2@24-4-*#<243<.*242",
"4,:+424+4::#<#41@-:*5#42:-:%424o:-:%424#:4:#<#43@-:%5#424-:#424O",
"$&<1<242$::2<24,:-*4<#4-$-*#43<&$-*3<242$:42<24-:-*2<#4-$2*#43<2",
":X5#424->:4#5#@&4.4<42:-:%4#42$&:%5#42:->:4#5#$24O4#42:-:#4#42@2",
"*,424-:-:4<#<%4,:24<4-*;:#424-:&*2424-:-44<#<%:-:24#4-*;:#424&:-",
"4,5242@-4<@#*25X4244:-:&4242:-:X4252:-$-4<@#*25%4242:-:242424&:%",
"4+@2:->2<452:-:+4#4::O:,4O4-:%*24#@-:-52<25-:2:#4#424.:24O4-:+*2",
"4,:-*%4#44:2:-42<2:>:-<,4#>%:-5244:-<%4#424-4-42<2:;:-<24#>%:&52",
"5,:3:24244$2:-4O4#4$4X5+42*-*-<254:3424242@24-4O4#:O:%5#42*-*&<2",
"4,<2@-:2445-:2<2434:*,424#<-:-:244<-$-:2425242*2434-*-:24#<-4&:2",
"4o43@-:2@<42:%:;4#5<:&<-42<#*-:-4@43$2:2@#424#4;4#5#:-*-42<#<&:-",
"*,<25%:;*442<24-42<<<2:-$24#4;:-*4<25%:;<242<-4242<#<24-$24#414-",
"$&<242:%*44#42*-<%4#4#424.<24O:%$:<2424#<24#42*2<#4#4#:-:.<24o:#",
":&:342<-*:*2424-<-*3424::%$3<24-::4342<2*-*2424-*-<3424-:%$3<,4-",
"$&*-@#4#<*:-5243:.:-4#454242<#42$:<-@#4#<#:25243:.:24#434-:2<+42",
"4&:-*2<#5::%:O<#4-:-:244<-:%:24#4-:2*2<#5-:%4O<#42424242<-:%:,4#",
"4&:%*34#<::-:242<-:;4244<-*-<3<24-:%<34#<-:-:242<24;4442<2<-*1<2",
":X:-<242:*:-4#424-<-4#4<$%:%<#@2:%:-<2424%:-4#42:2*-4<4#@%4#<#@2",
":=:#424%:::#424-:-5#42<:*#*3<24-4;:#424%:2:#424-42>#44<2*#<3<24-",
":&@3<2::>:4O42*;:-4243$*:%4#42:%:-@3<2:2>-4O42<;:24245@%4#4#42:%",
":,424%:*:45#4%:-:24244>::2@24;:-42424%4*425#4%:-:4424:52:2@24;:2",
"4,52*-*:4<<2*-:%5242**:*4#42<-*-4252*2*:4#<2*-:#5442**:%4#42*-<-",
"4+4-:;:4444%:-4242<;4*:4@#4-:2:24#4-:;:4424#42:244<34<:2@#42:2:2",
"4,*-*-4444@-:;4O4#4:::<452:-:-<242*-<-4442@-:;4O4<42:4<252:24-<2"
};
