/* XPM */
static char *result[] = {
/* columns rows colors chars-per-pixel */
"64 64 49 1 ",
"  c #383D3A",
". c #3D413D",
"X c #40443C",
"o c #4A4638",
"O c #504C3C",
"+ c #55513F",
"@ c #5B513F",
"# c #444541",
"$ c #5A4C44",
"% c #585240",
"& c #5B5442",
"* c #5F5643",
"= c #5C5544",
"- c #5F5B47",
"; c #605845",
": c #625249",
"> c #62534A",
", c #605A49",
"< c #635D49",
"1 c #6B5F49",
"2 c #69624E",
"3 c #70634E",
"4 c #6E6450",
"5 c #706651",
"6 c #766952",
"7 c #736954",
"8 c #766E57",
"9 c #786C55",
"0 c #786F5A",
"q c #7E7159",
"w c #7C725A",
"e c #84755A",
"r c #80775F",
"t c #83775E",
"y c #827860",
"u c #847960",
"i c #837C64",
"p c #887A60",
"a c #887E65",
"s c #8D8166",
"d c #8D8368",
"f c #8D856C",
"g c #8D876E",
"h c #93937D",
"j c #94947D",
"k c #979882",
"l c #9F9F8B",
"z c #9E9F8C",
"x c #9FA08D",
/* pixels */
"fespypfpssspypspypspsysp0aspspy3 ...X. ......ispypssswss0aspspyp",
"0eswsps0syswspyws70pssypspspsp05 ..#... .#.#rkkkt70pspysspspsp0a",
"s9swfpspysyaspspswsasyswfwspswy3.X.# ...#.#ikkkkjksaswswfwspswyp",
"sey7spyasyspspspspspysy7yws7fps3..# ..# .#.izkllkjkkypy7yws7fpsp",
"sespspypspfpswspsws7ssspsaspypf3......#...ikzllllkxhkpspsaspypfp",
"sesaywspswspspsaypspsyfpypspsws3... X#...#kkllllkxkkkkfpypspswsp",
"se07ypspypypspypswspssy7spspypy=..  #...#ikkllllllkhkkk7spspypy7",
"feswswfwswspfwswsps7syspspswsps3 ..#.X #.kjllllxlkxjkkkhspswspsp",
"seypypsp0pswyp0pspspyyypsay7yps3..X.#...ikxlllkhlkkkkkypsay7ypsp",
"spswspswspswywsa0pswfyspspswsps=...X...Xkklllzkxkhkk-O6pspswsps7",
"0pyaypsp0pspypspspypyysp0pywsay3 .# X..:kkllkkkkkkk@+O*3,pywsayp",
"swfwspspfpswfw0ps7swssspswswsp01.# #...gklllxxkkkk*O*@*36<6wsp0p",
"ypspspsespywywspspswspyaswspsps1#......kkllkxkhkk@*O*1256<spspsp",
"spfpsp0esw0wypfwspspspspspspsps;.. ...:klllxkkjk*@*@6163spspsssw",
"sw0pspfeypfpseswswsps7sps7spswy3.# ...ikllxjhxkO*O*36%6ps7spsyyp",
"spspyws9spspsespypsaspypswfwspf3....#Xkkllkkkk*@+@656eypswfwssfp",
"fpsaspsesp0pses7sws7swfwspypypy3 .. .:klllkkx-*o*<6=s9fwspypysyp",
"spys0psespfpseypsaspypspswypsps3..#. tkllxkxt@+@65spyespswypspsp",
"s7sf0pse0wsps9saswfwspypspywyps3. .  kklljzk*O*56wfwseypspywypsp",
"ypysfwsuypspyespspywypsp0pswsas3#.#. klllxk@+@6pspywyesp0pswsasp",
"0pyssps9ypswseypywswswsps7yps7s< .X.:khlxkdO*3ypywsws9sps7yps7sw",
"spsfspyeypypsespypyaspspsw0ayps3... tkllkk+@6pspypyaspspsw0aypsp",
"0pyp0ws9ywspfesas7spswsaspspyws3 .#.kklkkt*38psas7spswsaspspywsp",
"spspypy9fpsws4ywspspspspypswsps<....hllkk@*<s7ywspspspssypswspsw",
"spswyas9ypspsespypsassssypypyay3...:klkzt@6pspspypsaspssypypyayp",
"swspypseswsps9spssypsysy0wswyw03.#.qklzk*Ospswspspypswsy0wswyw0p",
"saswsps9spswspspspfwssysywyayps3. .jkkkd*3swspspspfwspysywyaypsp",
"sp0aypsefps7spyaspspsa0yswswsps<.. khkk*8ps7spyaspspsa0yswswspsw",
"spspsws9spfwswspspspspfssp0psas3.. kkk*2spfwswspspspspfssp0psasp",
"spfpypyeswypysswfpspywswswspypyp..>kjk+sswypypswfpspywsyswspypyp",
"swsesasespswssspspyaswsp0wspsps3.Xqkk&6sspswspspspyaswsp0wspspsp",
"spyeypsesp0psfs4syspspypfpspspyp..kkk@sssp0psas7swspspypfpspspys",
"fpseypfespspysseysspswsp0aspspy3 .kk+efsspseypspypssswsp0aspspys",
"0ps9sps4syswssy9s00pspypspspsp0a .kk6es7sws9spyws70sspypspspsp0f",
"sws9fpseysyassseswsaswswfwspswyp.$k9fespypyuspspswsfswswfwspswyp",
"spy4spyusyspsssespspypy7yws7fpsp.qk4seyaswsespspspspypy7yws7fpsp",
"spsespyessfpsysesws7spspsaspypfp#hsespypspfeswspsws7spspsaspypfp",
"spsuywsesyspsssuypspswfpypspswsp#hsuywspswsespsaypspswfpypspswsp",
"sp04ypseysypspyeswspspy7spspypy7#h07ypspypypspypswspspy7spspypy7",
"fps9swf9syspfws9sps7swspspswspse#pswswfwswspfwswsps7swspspswspsp",
"spyeypse0sswyp0espssywypsay7ypse:pypypsp0pswyp0pspspywypsay7ypsp",
"ses9sps9ssswywsu0psyfwspspswsps4:pswspswssswywsa0pswfwspspswsps7",
"0eyuypsp0sspypsespysywsp0pywsaye:pyaypsp0sspypspspypywsp0pywsayp",
"s9fwspspfsswfw0es7syspspswswsp0e:wfwspspfsswfw0ps7swspspswswsp0p",
"yespspspssywywsespsyspyaswspspse7pspspspssywywspspswspyaswspsesp",
"sefpsp0psy0wypf9spssspsespspsps9:pfpsp0psy0wypfwspspspspspspsesw",
"s90pspfpysfpsps9swsss7ses7spswyp7w0pspfpypfpspswswsps7sps7sps9yp",
"sespywswssspspspypsfspyeswfwspfp7sspywswspspspspypsaspypswfwsefp",
"fesaspspss0psps7sws0s9f9spypypypwssaspspsp0psps7sws7swfwspypyeyp",
"seyp0pspssfpspypsassyespswypspsp7syp0pspspfpspypsaspypspswypsesp",
"s4sa0psp0yspswsaswfyseypspywypspw0sa0psp0wspswsaswfwspypspywyesp",
"yeypfwsaysspypspspyyypsp0pswsasp7sypfwsaypspypspspywypsp0pswsusp",
"0eypspswysswspypywswswsps7yps7swwsypspswypswspypywswswsps7yps4sw",
"sesaspypysypspspypyaspsssw0aypspwssaspypypypspspypyaspspsw0ayesp",
"0eyp0wswyyspfpsas7spswsfspspywspwsyp0wswywspfpsas7spswsaspspy9sp",
"sespypywfssws7ywspspspssypswspswwpspypywfpsws7ywspspspspypswsesw",
"seswyaswysspspspypsaspssypypyayp7pswyaswypspspspypsassspypypyuyp",
"s9spypspsyspswspspypswsy0wswyw0pwwspypspswspswspspypsysw0wswyw0p",
"suswspswssswspspspfwspysywyaypsp7aswspswspswspspspfwssypywyaypsp",
"se0aypssfss7spyaspspsa0yswswspswsp0aypspfps7spyaspspsf0wswswspsw",
"sespswsyssfwswspspspssfssp0psaspspspswsyspfwswspssspssfpsp0psasp",
"sefpypyssyypypswfpspyysyswspypypspfpypysswypypswfsspyyswswspypyp",
"s9spsassssswspspspyasyss0wspspspswspsassspswspspssyasysp0wspspsp",
"seypypssss0psas7swssssysfpspspypspypypsssp0psas7syspssypfpspspyp"
};
