/* XPM */
static char *result[] = {
/* columns rows colors chars-per-pixel */
"64 64 9 1 ",
"  c #1A1A18",
". c #242423",
"X c #413C26",
"o c #484E39",
"O c #59543D",
"+ c #676352",
"@ c #868863",
"# c #A8AB70",
"$ c #B7B69D",
/* pixels */
"###@#@#######@#@#@@@@@@@@O@O@O@O############@#@#@@@@@@@@O@O@O@OO",
"#++++++++o+o+++o++++++o++++++++O#++++++++++o++++++o++++++++++++O",
"#++..X.XXX.XXXXXXX.X..XXXX.X.+oX#++.X++++XX++++XXo+o+XX++++Xo@+O",
"#+... ... .......... .... . .o+O@+...#+OX. o++X. #o+X..#o@X .#+X",
"#+X................ .... ....#oX#+...#O@...#+@X .#++X..@@oX..#+O",
"#++##@###@#####@$##$####$####++O@+X .@@oX..#+oo..#++X. $o+X..@oX",
"#+++O@+@o+++++O@++++++o+++++o@+X#+...#++X..#++...#++X .@++X. #+O",
"#++O@o++#O+++o@o+++++o+++++o+++X#+X..#@+X..#++X .#++.. #O@o..@+X",
"#++X.XXX.oXX.X.XXo.X...XXX.X.++X#+X..#o#...#++...#+oX  @@+X. $+X",
"#+X........   ..... . ..... .@+X#oX .@+Oo..#+oo..#o+X. $++X .#+X",
"#+X ........ ... ... ..... . #+X#+...#++X..#o@X..@++X .#++X..#+X",
"#o+o#######@#@##$+#@$####+$##++X#oX..#++X .@ooX..#++...#++o..#oX",
"@+++++++++ooo@+++@O++++++@+++++X#+X..#++.  #o@X..#+oX..#+oX..#+X",
"#+++@o+++o@o@+++++@o+++++++++++X@+X..#+oX .@@+X..#O@X..#O@o..#+X",
"@++XXo.X.oXXXXX.X.XoXXXXXXXXX+oX#+X..#O@...#++X..@@+X..@@+X..#+X",
"#+X. .. ........ ..... .... .@+X@oX..@@oX..#++.. $++X. $++X..#+X",
"@+X ........... ..... .... ..#+X#+X..$++X. $++X .#++X .#++X..#+X",
"@+o#######@###@$####@$##$@$##++X@+X..#++o..+@+...#++...#++...#+X",
"@o+o+++++o+++O@++++o@++++@X+o++X@+...#++...#O@X..#+oX .#+OX..#oX",
"@+o+++++o+++o@++++ooo+++++#O+++X@+X. $++X .@+oo..#oo...#O@X..#+X",
"@++XXXX.XXX.XXXXX.X.oXXXXX.@X++X@+. .#++.. $++X..@@oo..+@+X..#+X",
"@+X... . . ..... . ...... ...@+X@+...#+o. .#++X. $++X..$++o..#+X",
"@+X.. .   ..... ............ #+X@oX..#o+...#++X .#++X..#++X..#+X",
"@++#@$@#@$####@$####+$#####@#++X@+X..#++X..#++X..#++X..#+OX..#+X",
"O++o@o+O@++++O@++++O@+++o+o@O+oX@+X. $++X..#++X..$++X..#ooX..#oX",
"@++@o++@++++o@++++O@+++Ooo+o@o+XO+X .#++X..+@+X..@@+X .#+oX..#+X",
"O++XXXXoXXXoXoXXX.XXXoXXXXX.Xo+X@+...#++.. $++X. $X#...#o+X .@+X",
"@+X ..... ................ . @+XO+X .#+oX .#++X .#+O@..@@o.. #+X",
"O+o... . .................. .#+X@+...#o+.. #++X..#o+X. #O@X .#+X",
"@+@##@#@$#################@##++XO++o#+@++@#++++@#++++@#++oo@#++X",
"O++++o+++++o++++++o+++++o++++++.@+o+o+++++++++o+++++++++o++++++.",
"OOOXOXOXXXXXXXXXXXXXXXXXXXXXXX..OOXOXOXXXXXXXXXXXXXXXXXXXXXXXX..",
"############@#@#@@@@@@@@O@O@O@OO###@#@#######@#@#@@@@@@@@O@O@O@O",
"#++++++++++o++++++o++++++++++++O#++++++++o+o+++o++++++o++++++++O",
"#++.X++++XX++++XXo+o+XX++++Xo@+O#++..X.XXX.XXXXXXX.X..XXXX.X.+oX",
"@+...#+OX. o++X. #o+X..#o@X .#+X#+... ... .......... .... . .o+O",
"#+...#O@...#+@X .#++X..@@oX..#+O#+X................ .... ....#oX",
"@+X .@@oX..#+oo..#++X. $o+X..@oX#++##@###@#####@$##$####$####++O",
"#+...#++X..#++...#++X .@++X. #+O#+++O@+@o+++++O@++++++o+++++o@+X",
"#+X..#@+X..#++X .#++.. #O@o..@+X#++O@o++#O+++o@o+++++o+++++o+++X",
"#+X..#o#...#++...#+oX  @@+X. $+X#++X.XXX.oXX.X.XXo.X...XXX.X.++X",
"#oX .@+Oo..#+oo..#o+X. $++X .#+X#+X........   ..... . ..... .@+X",
"#+...#++X..#o@X..@++X .#++X..#+X#+X ........ ... ... ..... . #+X",
"#oX..#++X .@ooX..#++...#++o..#oX#o+o#######@#@##$+#@$####+$##++X",
"#+X..#++.  #o@X..#+oX..#+oX..#+X@+++++++++ooo@+++@O++++++@+++++X",
"@+X..#+oX .@@+X..#O@X..#O@o..#+X#+++@o+++o@o@+++++@o+++++++++++X",
"#+X..#O@...#++X..@@+X..@@+X..#+X@++XXo.X.oXXXXX.X.XoXXXXXXXXX+oX",
"@oX..@@oX..#++.. $++X. $++X..#+X#+X. .. ........ ..... .... .@+X",
"#+X..$++X. $++X .#++X .#++X..#+X@+X ........... ..... .... ..#+X",
"@+X..#++o..+@+...#++...#++...#+X@+o#######@###@$####@$##$@$##++X",
"@+...#++...#O@X..#+oX .#+OX..#oX@o+o+++++o+++O@++++o@++++@X+o++X",
"@+X. $++X .@+oo..#oo...#O@X..#+X@+o+++++o+++o@++++ooo+++++#O+++X",
"@+. .#++.. $++X..@@oo..+@+X..#+X@++XXXX.XXX.XXXXX.X.oXXXXX.@X++X",
"@+...#+o. .#++X. $++X..$++o..#+X@+X... . . ..... . ...... ...@+X",
"@oX..#o+...#++X .#++X..#++X..#+X@+X.. .   ..... ............ #+X",
"@+X..#++X..#++X..#++X..#+OX..#+X@++#@$@#@$####@$####+$#####@#++X",
"@+X. $++X..#++X..$++X..#ooX..#oXO++o@o+O@++++O@++++O@+++o+o@O+oX",
"O+X .#++X..+@+X..@@+X .#+oX..#+X@++@o++@++++o@++++O@+++Ooo+o@o+X",
"@+...#++.. $++X. $X#...#o+X .@+XO++XXXXoXXXoXoXXX.XXXoXXXXX.Xo+X",
"O+X .#+oX .#++X .#+O@..@@o.. #+X@+X ..... ................ . @+X",
"@+...#o+.. #++X..#o+X. #O@X .#+XO+o... . .................. .#+X",
"O++o#+@++@#++++@#++++@#++oo@#++X@+@##@#@$#################@##++X",
"@+o+o+++++++++o+++++++++o++++++.O++++o+++++o++++++o+++++o++++++.",
"OOXOXOXXXXXXXXXXXXXXXXXXXXXXXX..OOOXOXOXXXXXXXXXXXXXXXXXXXXXXX.."
};
