/* XPM */
static char *result[] = {
/* columns rows colors chars-per-pixel */
"64 64 16 1 ",
"  c black",
". c #1A1A18",
"X c #1F1F1E",
"o c #27271E",
"O c #242423",
"+ c #342C28",
"@ c #343128",
"# c #343328",
"$ c #413C26",
"% c #49383D",
"& c #454A35",
"* c #484E39",
"= c #59543D",
"- c #676352",
"; c #868863",
": c #A8AB70",
/* pixels */
"                                                                ",
"-------------*-*----------*-***. ----------$-$$$-----------*-*--",
"*******************************. -***********$*$****************",
"*******************************. -***********$$*****************",
"*************************$:-***. -*$:-*******$$*****************",
"*************************$--***. -*$--*******$$*****************",
"*************************$$****. -*$$********$$*****************",
"*******************************. -***********$$*****************",
"-------------------------------+.:-----------==-----------------",
"*******************************. -***********$$*****************",
"-------------------------------+.:-----------==-----------------",
"-------------------------------. :-----------==-----------------",
"-------------------------------+.:------------=-----------------",
"-------------------------------+.:-----------=------------------",
"-------------------------------+.:------------=-----------------",
"-------------------------------+.:------------------------------",
"-------------------------------+.;------------=-----------------",
"-------------------------------..;------------------------------",
"-------------------------------+.%*-----------------------------",
"-------------------------------..+-;----------------------------",
"-------------------------------+.+:;----------------------------",
"-------------------------------..:;-----------------------------",
"----------------;--------------+.;------------------------------",
"---------------;*--------------..;------------------------------",
"--------------:%=--------------..:------------------------------",
"-------------;%==--------------..:-------------------;----------",
"--------------==---------------..:----*;------------;*----------",
"--------------===----;---------..:---%;------------:%=----------",
"--------------==----:*---------..:---;------*-----;%==----------",
"--------------==---;%=---------..:--;----*-%-------===----------",
"--------------===---==---------..:------*;%-*;-----==-----------",
"--------------==----=----------.+:-----%:*-%:------=-=----------",
"--------------===---==---------+.:---;%:--*;-------==-----------",
"--------------==----==---------.+;--;%:--*---------=------------",
"-----;--------=-=---=----------+.:-;%=-------------==-----------",
"----:*--------==----==---------.+;-%==-------------==-----------",
"---;%=--------=-----=----------++:--=--------------=------------",
"---*==--------==-----=---------.+;--==-------------==-----------",
"----=---------==----=----------++;--=--------------=------------",
"----==--------=----------------.+;---=--------------=-----------",
"----=---------==----=----------.O;--=--------------=------------",
"-----=--------=----------------.+;------------------------------",
"----=----------=----=----------.O---=--------------=------------",
"--------------=----------------.+;------------------------------",
"----=--------------------------.O------------------=------------",
"--------------=----------------..;------------------------------",
"-------------------------------.O-------------------------------",
"--------------=----------------..-------------------------------",
"-------------------------------..-------------------------------",
"-------------------------$:*---..--$:*--------------------------",
"-------------------------$**---..--$**--------------------------",
"-------------------------$$----..--$$---------------------------",
"-------------------------------.O-------------------------------",
";;;;;;;;;;;;;;;;;;;;;;;;;;;;-;-..-;-;;;;;;;-;-;-;;;-;-;-;-;;;;;;",
"                               .O.                              ",
"O  OO. OO  OO. OO  OO. OO  OO. OO  OO. OO  OO. OO  OO. OO  OO. O",
"&&&&&&&&&#&&&&#&#&#&#&######&#&#&#&&&&&&&&&&&&&&&&&&&&&&&#&&&&#&",
"ooooooooXooooooooooooooooXooooooXoooooooXoooooooXoXoooooXooooooo",
"oXoooooXoooooooooooooooXXoooooooooooooo@@@oooooooXoooooXoooooooo",
"Xoo&.oooooo&.oooooo&.ooXoo@&.oooooo&.o@o@oo&.oooXoo&.oooooo&.ooo",
"ooX .oooooX .oooooX .oXoXoX .ooXooX .oo@ooX .ooXooX .oooooX .ooX",
"XoXXooooooXXooooooXXoooXooXX@oooooXXoo@oooXXooXXooXXooooooXXooXo",
"ooooooooooooooooooooooXoooo@@oooooooo@ooooooooXooooooooooooooXoX",
".XXXXXX.X.X.......X.X. . .    . ........X.X..X.X.XXXXXX.X.X....."
};
