/* XPM */
static char *result[] = {
/* columns rows colors chars-per-pixel */
"64 64 4 1 ",
"  c #383D3A",
". c #3D413D",
"X c #40443C",
"o c #444541",
/* pixels */
" ...X. .....X...o....X..  ....X. ...X. .....X...o....X..  ....X.",
" ..o... .o.o..oo.  ...o.......   ..o... .o.o..oo.  ...o.......  ",
".X.o ...o.o .....X. .o.o o...Xo..X.o ...o.o .....X. .o.o o...Xo.",
"..o ..o .o..........o.o oX.  .....o ..o .o..........o.o oX.  ...",
"......o... ..o...o. ..... ..o. .......o... ..o...o. ..... ..o. .",
"... Xo...o..... X....o .o....o..... Xo...o..... X....o .o....o..",
"..  o...o.X...o..X....o ....o.X ..  o...o.X...o..X....o ....o.X ",
" ..o.X o.o.. o.o... .o.....o.... ..o.X o.o.. o.o... .o.....o....",
"..X.o... ..Xo. .....ooX.. o X.....X.o... ..Xo. .....ooX.. o X...",
"...X...X...ooo.  ..o o.....o... ...X...X...ooo.  ..o o.....o... ",
" .o X... ...o.....X.oo.. .oX. o. .o X... ...o.....X.oo.. .oX. o.",
".o o.... ..o o .. .o.....o.X.. ..o o.... ..o o .. .o.....o.X.. .",
"o.........oXoX.....o..X .o......o.........oXoX.....o..X .o......",
".. ... ..o oo. o...............o.. ... ..o oo. o...............o",
".o ... .o. ....X.o... ... ...Xo..o ... .o. ....X.o... ... ...Xo.",
"....oX.o........o.. ..o..o o.. .....oX.o........o.. ..o..o o.. .",
" .. ...... .... .X. .o X..o.X.o. .. ...... .... .X. .o X..o.X.o.",
"..o. ..... ...o.. ..o....oo.......o. ..... ...o.. ..o....oo.....",
". .  ... o...X. .o o..o...ooo.... .  ... o...X. .o o..o...ooo...",
"o.o. o. o...o.....ooo... ..o. ..o.o. o. o...o.....ooo... ..o. ..",
" .X....oX..o..X.Xo.o.o... o.. .X .X....oX..o..X.Xo.o.o... o.. .X",
"... ..o.o.X.....o.o .....o  o...... ..o.o.X.....o.o .....o  o...",
" .o. o.ooo.. .. . ...X. ....oX.. .o. o.ooo.. .. . ...X. ....oX..",
"....X.oX ..o. oo........o..o...X....X.oX ..o. oo........o..o...X",
"...oo .oo.......X.. ....o.o.o o....oo .oo.......X.. ....o.o.o o.",
".o..o....X...o....o..X.o X.ooo ..o..o....X...o....o..X.o X.ooo .",
". .o...X...X...... o..o.oXo o.... .o...X...X...... o..o.oXo o...",
"..  o... .. ..o .....  o.o.o...X..  o... .. ..o .....  o.o.o...X",
".....o.o.. o.X........ ... .. .......o.o.. o.X........ ... .. ..",
".. .o.o..oo.o..o ...Xo.o.o..o.X... .o.o..oo.o..o ...Xo.o.o..o.X.",
".X... .....X......o .X.. X.......X... .....X......o .X.. X......",
"..X.o..... .. . .o....X. .....o...X.o..... .. . .o....X. .....o.",
" ...X. .....X...o....X..  ....X. ...X. .....X...o....X..  ....X.",
" ..o... .o.o..oo.  ...o.......   ..o... .o.o..oo.  ...o.......  ",
".X.o ...o.o .....X. .o.o o...Xo..X.o ...o.o .....X. .o.o o...Xo.",
"..o ..o .o..........o.o oX.  .....o ..o .o..........o.o oX.  ...",
"......o... ..o...o. ..... ..o. .......o... ..o...o. ..... ..o. .",
"... Xo...o..... X....o .o....o..... Xo...o..... X....o .o....o..",
"..  o...o.X...o..X....o ....o.X ..  o...o.X...o..X....o ....o.X ",
" ..o.X o.o.. o.o... .o.....o.... ..o.X o.o.. o.o... .o.....o....",
"..X.o... ..Xo. .....ooX.. o X.....X.o... ..Xo. .....ooX.. o X...",
"...X...X...ooo.  ..o o.....o... ...X...X...ooo.  ..o o.....o... ",
" .o X... ...o.....X.oo.. .oX. o. .o X... ...o.....X.oo.. .oX. o.",
".o o.... ..o o .. .o.....o.X.. ..o o.... ..o o .. .o.....o.X.. .",
"o.........oXoX.....o..X .o......o.........oXoX.....o..X .o......",
".. ... ..o oo. o...............o.. ... ..o oo. o...............o",
".o ... .o. ....X.o... ... ...Xo..o ... .o. ....X.o... ... ...Xo.",
"....oX.o........o.. ..o..o o.. .....oX.o........o.. ..o..o o.. .",
" .. ...... .... .X. .o X..o.X.o. .. ...... .... .X. .o X..o.X.o.",
"..o. ..... ...o.. ..o....oo.......o. ..... ...o.. ..o....oo.....",
". .  ... o...X. .o o..o...ooo.... .  ... o...X. .o o..o...ooo...",
"o.o. o. o...o.....ooo... ..o. ..o.o. o. o...o.....ooo... ..o. ..",
" .X....oX..o..X.Xo.o.o... o.. .X .X....oX..o..X.Xo.o.o... o.. .X",
"... ..o.o.X.....o.o .....o  o...... ..o.o.X.....o.o .....o  o...",
" .o. o.ooo.. .. . ...X. ....oX.. .o. o.ooo.. .. . ...X. ....oX..",
"....X.oX ..o. oo........o..o...X....X.oX ..o. oo........o..o...X",
"...oo .oo.......X.. ....o.o.o o....oo .oo.......X.. ....o.o.o o.",
".o..o....X...o....o..X.o X.ooo ..o..o....X...o....o..X.o X.ooo .",
". .o...X...X...... o..o.oXo o.... .o...X...X...... o..o.oXo o...",
"..  o... .. ..o .....  o.o.o...X..  o... .. ..o .....  o.o.o...X",
".....o.o.. o.X........ ... .. .......o.o.. o.X........ ... .. ..",
".. .o.o..oo.o..o ...Xo.o.o..o.X... .o.o..oo.o..o ...Xo.o.o..o.X.",
".X... .....X......o .X.. X.......X... .....X......o .X.. X......",
"..X.o..... .. . .o....X. .....o...X.o..... .. . .o....X. .....o."
};
