/* XPM */
static char *_d05c1986b1542a7d9de2ff8b5f815cbaXD6JhdOFVg8Jbi2[] = {
/* columns rows colors chars-per-pixel */
"64 64 229 2 ",
"   c #0B0B0B",
".  c #14110E",
"X  c #1C130F",
"o  c #141314",
"O  c #1C1817",
"+  c #1C1C1D",
"@  c #181718",
"#  c #180B0A",
"$  c #221815",
"%  c #261F1B",
"&  c #2B1E18",
"*  c #231511",
"=  c #351012",
"-  c #06381C",
";  c #123316",
":  c #13371A",
">  c #173A1B",
",  c #183C1C",
"<  c #082519",
"1  c #23201E",
"2  c #35251C",
"3  c #39291D",
"4  c #1F1F20",
"5  c #331F20",
"6  c #211F20",
"7  c #00352C",
"8  c #0A3D22",
"9  c #113324",
"0  c #232323",
"q  c #2B2A27",
"w  c #2A2C2D",
"e  c #292725",
"r  c #3C2C24",
"t  c #332C28",
"y  c #3A2526",
"u  c #36332D",
"i  c #393734",
"p  c #3D3931",
"a  c #363838",
"s  c #2E3431",
"d  c #4E1617",
"f  c #7A1618",
"g  c #660E10",
"h  c #442823",
"j  c #4D3B26",
"k  c #4D352B",
"l  c #493524",
"z  c #423D39",
"x  c #573829",
"c  c #7A2D26",
"v  c #6D2F1F",
"b  c #1F491A",
"n  c #25441A",
"m  c #26481C",
"M  c #294B1F",
"N  c #3B5E1F",
"B  c #2D5F1B",
"V  c #00442C",
"C  c #094A26",
"Z  c #07592A",
"A  c #0B5C2D",
"S  c #0D532A",
"D  c #13562C",
"F  c #0B5633",
"G  c #0F5F30",
"H  c #125E31",
"J  c #185932",
"K  c #16462B",
"L  c #2B4C20",
"P  c #24542C",
"I  c #314835",
"U  c #146233",
"Y  c #1C663A",
"T  c #1C733C",
"R  c #3D6223",
"E  c #25693D",
"W  c #516D1A",
"Q  c #506B17",
"!  c #55721D",
"~  c #58741F",
"^  c #476B1A",
"/  c #5B402F",
"(  c #41403C",
")  c #52473E",
"_  c #664932",
"`  c #79573B",
"'  c #426626",
"]  c #466B29",
"[  c #5A7720",
"{  c #344C46",
"}  c #276C43",
"|  c #377953",
" . c #356D49",
".. c #4A4642",
"X. c #494D45",
"o. c #484848",
"O. c #555149",
"+. c #58524E",
"@. c #5B5749",
"#. c #495254",
"$. c #4C5F54",
"%. c #525252",
"&. c #5F5951",
"*. c #5E5E5C",
"=. c #575758",
"-. c #504D4B",
";. c #665649",
":. c #4F7259",
">. c #67635E",
",. c #746A58",
"<. c #777A5A",
"1. c #5B6865",
"2. c #6B6A6B",
"3. c #656565",
"4. c #726B63",
"5. c #68736D",
"6. c #77746B",
"7. c #77746A",
"8. c #747475",
"9. c #7A7B7B",
"0. c #8A1517",
"q. c #971517",
"w. c #A51416",
"e. c #AB1719",
"r. c #AD191C",
"t. c #A61618",
"y. c #B21A1E",
"u. c #B51E20",
"i. c #892725",
"p. c #BB2D2A",
"a. c #B72525",
"s. c #BC3B39",
"d. c #C03E3B",
"f. c #825B3D",
"g. c #C2423B",
"h. c #896346",
"j. c #8B6D56",
"k. c #A8744C",
"l. c #B37C51",
"z. c #887C6D",
"x. c #AD786B",
"c. c #925C59",
"v. c #C85149",
"b. c #D46F5E",
"n. c #63A216",
"m. c #408B28",
"M. c #588A6D",
"N. c #54936D",
"B. c #6E917D",
"V. c #6C9D5D",
"C. c #B5845D",
"Z. c #878078",
"A. c #8D8672",
"S. c #9E977B",
"D. c #989E7E",
"F. c #9D8674",
"G. c #A78D77",
"H. c #BB9679",
"J. c #AC876A",
"K. c #C88959",
"L. c #D1905C",
"P. c #C89C78",
"I. c #D3906A",
"U. c #E59D65",
"Y. c #E48F77",
"T. c #D5A279",
"R. c #EAAB78",
"E. c #E8A36D",
"W. c #769285",
"Q. c #72AD8A",
"!. c #7BB392",
"~. c #6DA684",
"^. c #838383",
"/. c #868B80",
"(. c #8A8988",
"). c #999183",
"_. c #8F8F90",
"`. c #9B9B9D",
"'. c #969695",
"]. c #8A938B",
"[. c #A69F98",
"{. c #AA9686",
"}. c #86B89B",
"|. c #90A995",
" X c #A7A18B",
".X c #A8A28D",
"XX c #A4A39C",
"oX c #B7A494",
"OX c #93BEA4",
"+X c #99B7A5",
"@X c #97AFA1",
"#X c #A2A2A1",
"$X c #A6A6AA",
"%X c #AAAAAA",
"&X c #B4B6AF",
"*X c #BDBDAF",
"=X c #ADADB0",
"-X c #AEB4B0",
";X c #B8B8BB",
":X c #B5AFA7",
">X c #D5AB87",
",X c #DBB697",
"<X c #CAAB90",
"1X c #ECB384",
"2X c #F1B88A",
"3X c #E2B38D",
"4X c #DDB0A1",
"5X c #D08C8B",
"6X c #9DC3AD",
"7X c #BEC3BF",
"8X c #A1C5B0",
"9X c #F5C49A",
"0X c #EFC09C",
"qX c #F5CBA7",
"wX c #FBD1AC",
"eX c #FFDCBC",
"rX c #FDD6B4",
"tX c #EBC6A6",
"yX c #BECFC5",
"uX c #C3C4C5",
"iX c #C9CBCC",
"pX c #C6C8C9",
"aX c #D5D9D7",
"sX c #CED6D2",
"dX c #E9D9D9",
"fX c #DBE3DF",
"gX c #EDEDED",
"hX c #E4E5E5",
"jX c gray94",
/* pixels */
"k r k k / / k / k k k k r r r r r k r k / / / k / k k k k k k k k r k r r r r k k k k k r r r r r k r k r r / k / k k k k k k k ",
"S.Z.6.>.>./  X7X-X X XS.S. X X XS.Z.6.>.>./ &X7X-X X XS.S.6. X XS.Z.6.>.>.k  X7X-X&X&XS.S.S.S.S.S.Z.6.>.r / k  X7X*X X X X6. X X",
"Z.6.Z.6.t k *X/.Z.Z.Z.Z.S. XZ.Z.Z.6.Z.6.t k *X/.Z.Z.#Xz XX X/.Z.Z.6.Z.6.t r *X/.Z.Z.Z.S././.Z.Z.Z./...6.t k / &X/.Z.Z.Z.S. X/.Z.",
"Z.Z.6.Z.F F F ..Z.Z.Z././.Z.Z.Z.Z.Z.6.Z.#.r  XZ.Z.Z.9.d y #XZ.Z.Z.Z.6.Z.#.k  XZ.Z.Z.S./.Z.Z.Z.Z.X.m.T ..#./  X&.Z.Z.Z./././.Z.Z.",
"Z.Z.Z.F F F 7 ( ..Z.Z.).>.Z.Z.Z.Z.Z.Z.Z.F j j 6.Z.Z.=.f d 0 _.Z.Z.Z.Z.Z.t r  XZ.Z. XZ.Z./.).>.>.i T T ( t F F F ..Z.Z.).>.Z.Z.Z.",
"Z.Z.Z.T F 7 V j F ..Z.>.>.Z.Z.Z.Z.Z.Z.T T T 7 t Z.#Xt q.0.4 + 3.Z.Z.Z.6.t k 6.Z.Z.).>.>.Z.>.6.i ..7 T j j 7 F F F ..Z.>.>.Z.Z.Z.",
">.Z.Z.i O & 7 T T T 6.#.#.Z.Z.>.>.Z.Z.m.T 7 j 0 i 9.= t.u.5 4 + q ^.Z.>.t k 6.>.>.>.>.6.Z.Z.i F F j t i O . 7 F T ..6.#.#.Z.Z.>.",
"#.#.t t #.2 i V m.m.m.t #.#.#.#.#.j j V + *   j j 3.g q.u.f 4 4 4 + o 8.*./ >.t t t #.#.#.w T T T 7 O O w $ i O w t t t #.#.#.#.",
"r r k r k k $ F j m.n.& r r F F j 7 F F F V T T |.w r.q.r.r.5 4 4 4 4 + o a ^.r r r r k $ m.m.m.V X $ k k k k k k k k r k k k r ",
" X&X X X X Xi j q 0 0 i 6.T T T 7 p 7 F T u m.T ^.= y.w.t.u.i.4 6 6 4 4 + o   + 2.>.>.>.( n.m.F j j F &. X X XS.S.S.S.Z.6.>.>./ ",
" X/.Z.Z.Z.Z...j p ..i 6.( m.T 7 p s ( q ( ( ( ..*.f y.y.e.r.a.5 4 6 4 4 4 + o . o 0 9.6.Z.i . * 7 T T T X.Z././.Z.Z.Z./.Z.6.t k ",
" XZ.Z.S.Z.Z...F F F ..( ..q . j @.( ( ..6.6.6.#Xz t.y.y.y.w.a.c 6 4 4 4 4 4 + o o o o q #X>.O & q 7 T m...Z.Z.Z.Z.Z./.Z.Z.Z.#./ ",
">.Z.6.Z.Z...F F F 7 j j F F j X @./.6.6.6.6.6.(.h y.y.y.y.e.e.p.h 4 4 4 4 4 4 4 o o o + o ^.t r i j q t ..Z.Z.).>.>.>.6.Z.6.t r ",
">.6.Z.6.Z.6.T F 7 q F 7 T T T X i 6.6.6.6.6.6.#.g y.y.y.y.y.w.p.i.0 4 4 4 4 4 4 + @ o + + o *.$ F F j ( ....Z.>.6.>.Z.Z.6.6.t k ",
">.>.6.Z.6.Z.( t t T T T 7 T m.& #.>.6.#.#.#.'...q.y.y.y.p.y.w.a.p.c.a 0 4 4 4 4 4 + @ + + + + a T T 7 F F j j F F ..>.6.Z.>.t r ",
">.t t t #.#.#.w m.m.m.V .   w / #.0 t 0 t t '.d e.y.y.y.v.y.t.a.p.v.hX`.%.0 4 4 4 4 + + + + + + 0 9.T T T 7 7 j T T w #.t t #.k ",
"r r r r r k r k n.m.F X 2 & k k k k k k k r *.g r.y.y.y.b.y.t.u.p.p.5XgXuX`.8.a 4 4 4 + + + + 0 6 + 0 3.W.. X V m.m.m.2 k k k k ",
"Z. XS.S.Z.6.>.#.>.2 &.8.-X X XS.S.6. X XS.`.s q.r.r.y.a.Y.y.e.y.p.p.d.dXgXuX%X`.2.q 4 4 + + + 0 0 0 0 + + s *.^.`.m.n.7. X X XZ.",
"Z.S.6.6.6.>.6.>.0 k *X/.Z.Z.Z.S./. X/.Z.z.^.5 e.e.r.y.g.Y.y.y.e.a.p.p.4XjXgXsX%X$X(.a 4 + + + 0 0 0 0 0 0 0 + + 2.X &.X.6.6.6.6.",
"/.6.6.6.6.6.>.6.t r  XZ.Z.Z.S./.Z./.Z.Z.z.%.g t.e.r.y.v.Y.y.y.w.u.s.5XgXjXjXjXhX;X$X$X8.w + + 0 0 0 0 0 0 0 0 + uX& S.6.6.6.6./.",
"#.6.6.6.6.6.6.6.0 k >.6.Z.Z.Z.).>.Z.Z.Z.#X%.0.w.t.e.r.b.Y.y.y.i.x.dXjXjXjXjXjXjXgXuX$X$X%X3.0 0 0 0 0 0 0 0 0 + uX& #.>.6.6.6.Z.",
"#.6.6.6.6.6.6.>.0 k 6.Z.Z.).>.>.>.Z.Z.Z.'.= w.w.w.t.c x.J.P H H :.@XyXaXgXjXjXjXjXjXsX=X$X;X$X=.0 0 0 0 0 0 0 0 ^.k >.6.6.6.6.#.",
"t 6.6.#.#.6.6.#.0 k 6.>.>.>.>.>.6.Z.Z.>.*.d w.q.x P E <.<.A A A A U M.Q.OXfXjXjXjXjXjXhX;X%X;XuX'.-.e 0 e 0 0 0 -.k >.#.#.6.>.t ",
"t t t t t t 0 0 t / >.t t t #.t #.0 0 z.o.0.v P U U  .:.:.Z A A Z A } ~.Q.OXhXjXjXjXjXjXgXuX%XuXiXuX'.%.q e 0 0 s / #.0 0 0 0 0 ",
"k r k k k k k k k k r k k k r $ r k r _.y l C S S H E  .} Z Z A Z Z H N.Q.!.6XgXjXjXgXjXjXjXiX=XpXiXiXiX%X2.i 0 + r k r k k r r ",
"7X&X X X X XS.S.S.S.Z.6.>.>.V V V S.S.3.0 %.2.2.-.+ : J U Z Z Z Z Z Z | Q.!.}.8XfXhXhXgXjXjXjXaX;XiXiXiXiXiXuX`.w #.#.>.>.#./  X",
"Z.Z. X/.Z././.Z.Z.Z./.Z.6.t 7 F F F #Xo.#X6.Z.S.6.#.`.w 8 Z Z Z Z Z Z Z N.!.}.}.Y W.sXhXjXjXjXjXiX7XiXiXiXiXiXpX-.#.>.6.#.0 / &X",
"6.Z.6.Z.Z.Z.Z.Z.Z./.Z.Z.Z.#.* 7 F F '.o.6.6.6.6.6.6.>.6.'.0 < - C Z Z Z } Q.}.6X} Z U | |.hXjXjXjXpXuXiXiXiXiX=X2.6.6.6.#.0 k 6.",
"Z.6.Z.Z.Z.Z.).>.>.>.6.Z.6.t $ j ( i *.2.6.6.>.6.6.#.>.6.>.t k .XXX*.- Z Z N.}.OXN.Z Z Z A Y W.aXjXgXuXiXiXiXiX8.6.>.6.6.>.0 r >.",
"6.Z.6.Z.Z.Z.>.6.>.Z.Z.6.6.O F F j oXz #X>.6.6.6.>.#.6.>.6.0 k 6.Z.Z.9.C Z U ~.OX}.Z Z Z A A A | +XgXaXuXiXiX-X9.>.6.6.6.6.t r >.",
">.6.Z.6.Z.Z.Z.>.Z.>.6.Z.>.T T |.1.G.G.} 6.>.6.6.>.#.>.>.#.0 k >.6.Z.>.5.C Z } OX6XY Z Z A U A H U B.aXiXiXiX3.6.6.6.6.6.6.0 r >.",
"t t t #.t #.#.#.#.#.#.t O m.[.rX,Xp >XoXF t t t t t 0 0 0 t / #.t #.t #.5.C Z | OX| Z Z Z U U A U U } @XiX8.`.# t t 0 0 0 t r >.",
"r k k / / k / k k k k r r $ oXJ.<X,./ tX:X/ k V F F F j k k F F F & r r r 5.C Z } H Z Z Z G Y U G U U A :.-.k / k k k k k k k k ",
"Z.6.>.>./ S.*X X X XZ.Z. XS.,XqXP.j./ >X<XF j 7 T T T u j T T T V V V >.k  X#X$.I , - C Z A U E A U Y U - z. X7X*X X X X6. X XS.",
"6.Z.6.t k  X/.6.6.6.6.Z.S.[.H.3XtXj.k.H.qXXX7 t V m.m.m.p m.T 7 7 F F F $ F F j V m.V.(. .S A E Y E :.:.s / &X/.Z.Z.Z.S. X/.Z.Z.",
"Z.6.Z.#.k S.6.6.6.6././.6.oXqXtXH.0XC.,XeX).7 t t F m.n.X.t t t F 7 F F T T T 7 t F m.n...].K H  .Y M.B.8. X XZ.Z.Z./././.Z.Z.Z.",
"Z.Z.Z.t k #.>.6.6.6.Z.#.6.G.H.<X,XJ.K.rXeXF.q ......O.i ....t T T T 7 O m.T 7 t p t t X.O.>.6.I J | | ].[.Z.6.Z.Z.Z.).>.Z.Z.Z.Z.",
"Z.Z.6.t k >.6.6.6.6.#.#.6.F.,X,Xx.h.P.eXrXJ.....).>.>.>.Z.Z...m.T 7 j O X j F F O.i i ..>.6.>.Z.I J } M._.6.Z.6.Z.Z.>.>.Z.Z.Z.Z.",
"Z.Z.>.t k >.#.#.6.>.t t 6.6...u _ I.,XwXU.;.>.>.>.>.>.6.Z.Z.>.i t t j . & j T T T i 6.Z.z.>.Z.>.6.*.8 D 8.>.6.Z.Z.6.#.#.Z.Z.>.>.",
"#.t t #./ #.0 0 0 0 0 t t t #Xa h.9XwXqX9XH.t t t #.t #.0 0 t #.w . F F j 0 7 T m.w #.#.#.#.#.#.#.t B.- 1.>.t #.t t t #.#.#.#.#.",
"r r r k r k k r r k k r k r ^.%.;.k.k.R.eXP.k r / r / k r r r r & T T T 7 X & $ $ r r r k r k k r r k #Xa k k k k k k k r k k k ",
"/  X&X X X X X>. X6.>.>.>.6.6.>.;.r K.T.eXP. X>.Z.Z.S.S.Z.6.>.>.m.m.m.V ..&. X X6.6.>.>.>.6.6.#./  X7X&X:X X X XS.S.S.S.Z.6.>.>.",
"k  X/.Z.Z.Z.Z.Z.S. XZ.>.6.6.Z.t k _ 1XR.eXP.Z.Z.Z.Z./.Z./.Z.6.O n.m.F V V V Z.S. XZ.Z.>.6.Z.>.t / &XZ.Z. X/.Z././.Z.Z.Z./.Z.6.t ",
"/  XZ.Z.S.Z.Z.Z.Z.Z.Z.Z.6.Z.6.t x ` 9X2XeXP.).Z.Z.Z.Z.Z.Z.Z.Z.V V V t 7 F F F Z.Z.Z.Z.Z.Z.Z.>.t k 6.6.Z.6.Z.Z.Z.Z.Z.Z./.Z.Z.Z.#.",
"r >.Z.6.Z.Z.Z.Z.6.Z.Z.>.6.Z.6.#.k h.qX9XeXP.XXZ.Z.>.>.>.6.Z.F F F 7 F F 7 F F Z.Z.Z.Z.6.Z.Z.6.t r >.Z.6.Z.Z.Z.Z.).>.>.>.6.Z.6.t ",
"k >.6.Z.6.Z.6.Z.Z.Z.6.>.Z.6.Z.t k k.qXwXeXP.#XZ.6.6.>.Z.Z.6.F F 7 7 T T T ..Z.6.Z.Z.6.Z.Z.Z.Z.#.r >.6.Z.6.Z.Z.Z.>.6.>.Z.Z.6.6.t ",
"r >.>.6.Z.6.Z.6.Z.Z.6.>.6.6.>.t k k.9XeXeXT.#XZ.>.>.Z.>.6.Z.>.O & F 7 T m...>.Z.Z.Z.Z.Z.Z.Z.Z.t r >.>.6.Z.6.Z.Z.Z.>.Z.>.6.Z.>.t ",
"k >.t t t #.#.#.#.#.#.#.t t 0 #.,.l.9XeXeX>X'.#.t #.#.#.#.t t w 2 + j + . w w t #.# #.#.t t 0 #.r >.t t t #.t #.#.#.#.#.#.t t #.",
"r r k r k / / / k / k k k k k k (.K.9XeXeX>X(.r k k k k k r r r $ $ F j F F F 2 k / k k k k k k k k r k k / / k / k k k k r r r ",
" XS.Z.6.>.6./  X7X-X X XS.S.6. X#XK.2XeXeX3X6. X7X-X&X&XS.S.S.S.@.T T T 7 T T T @.*X XS.S.S.>. X XZ.6.>.#.#./ &X7X-X X XS.S. X X",
"Z.Z.6.Z.6.t k *X/.Z.Z.Z.S./. X/.'.K.2XeXeXqX) *X/.Z.Z.Z.S././.Z...m.T 7 q V m.m.m.X.6.6.6.Z. X/.6.6.>.6.>.0 k *X/.Z.Z.Z.Z.S. XZ.",
"Z.Z.Z.6.Z.#.r  XZ.Z.Z.S./.Z./.Z.^.L.1XeXeXwXl  XZ.Z.Z.S./.Z.Z.Z.Z.X.t t t j F m.n.( 6.6./././.6.6.6.6.>.6.t k  XZ.Z.Z.Z././.Z.Z.",
"Z.Z.Z.Z.Z.t k >.6.Z.Z.Z.).>.Z.Z.3.L.R.eXeXrX` :XZ.Z. XZ.Z./.).>.>.>.( t j j F q 0 ( 6.6.Z.#.6.6.6.6.6.6.6.0 k >.6.Z.Z.Z.).>.Z.Z.",
"Z.Z.Z.Z.6.t k 6.Z.Z.).>.>.>.Z.Z.-.L.E.rXeXeXC.9.Z.Z.).>.>.Z.>.6.>.F F F 7 T T T ( >.6.6.#.#.6.6.6.6.6.6.>.0 k 6.Z.Z.Z.Z.>.>.Z.Z.",
">.>.Z.Z.>.0 k 6.>.>.>.>.>.6.4.Z.u L.U.wXeXeX1Xz >.>.>.>.6.Z.Z.>.T T T 7 0 7 T m.i 6.6.>.e t 6.6.#.#.6.6.#.0 k 6.>.>.Z.6.#.#.Z.Z.",
"#.#.#.e 0 #.k >.t t t #.t m + 0 q L.U.qXeXeX9X3 &.t t #.#.V V V m.T 7 V V V $ o 0 t 0 Q + t t t t t t 0 0 t / >.t t t t t #.#.{ ",
"2 h k 2 r r & r r k r k 2 Q 2 k i K.U.9XeXeXrX_ (.r k k F F F 7 F . . 7 F F F k r k r Q n r r r k r k k r / 2 / k r r r r k N h ",
"] XX,.[ ,.6.O...+.>.6.6...W ,.=X%.k.U.2XeXeXeXC.3.Z.6.>.C F 7 T T T ' z 7 F C >.+.+.O.' ..h S.>.S.S.z.S.#.6.>.&.Z.6.>.{ #.2 ] '.",
"] ,.' ~ ,. X' &.+.' Z.+.% W L 4.8.` U.R.eXeXeX3Xz.*.Z.6.% W F V m.B ! u 4.S.A.~ ..>.O.~ % N  X*.>.! O.6.O.6.>.] 6.7.6.+.+ & ] ,.",
"~ , ] ~ &.4.' ~ 4.&.L +.% N > >._.l U.E.wXeXqX.X7.' &.L 8 8 F 1 8 B ^ : 4.&.4.' L >.&.' % ' z.O.>.~ O.>.O.>.O.' O.>.O.' % n ~ &.",
"~ , L ~ L 4.&.~ O.' ' >.% ; M &.^.. U.U.>X>X] M ..' ' D T D 7 % ( u n , &.O.&.~ M O.~ ' a n ] *.O.' O.M O.! a R a ' O.' @ W ~ L ",
"L ] L ' M ' &.M &.L ~ , W N > M &.  f.j.D.> ! M &.&.M m.T < V V V O.L > &.' &.> M &.! M N 2 M O.! ' O.O.' ! ..W M > ..! N n ' , ",
"' , ' ' L , &.L ' , ~ , Q ; ' > ' L ' M ~ , M , ..M ' i . j 7 F F b > &.> L ' > ! ' > ' n 2 m ! ' : W m > W : ! m > > W ; ; ' , ",
": n : R ; : N : m ; n N : n > ; N ; m ; R m : : R m ; t w j i 7 F b : m : R : R W ; ; N : n ; ; N ; N ; Q ; ; N ; N n N n n > ; "
};
